<svg xmlns="http://www.w3.org/2000/svg" xmlns:xlink="http://www.w3.org/1999/xlink" version="1.1" width="200px" height="200px" fill="#000" fill-rule="evenodd">
<g><path d="M 63.5,29.5 C 71.0282,29.1061 78.1948,30.4395 85,33.5C 85.8333,35.1667 86.6667,36.8333 87.5,38.5C 91.746,39.7498 96.0794,40.5831 100.5,41C 108.361,40.9572 116.194,41.1239 124,41.5C 131.112,38.5741 138.446,36.2408 146,34.5C 150.932,35.1404 155.765,36.3071 160.5,38C 166.875,41.7608 171.708,46.9275 175,53.5C 180.185,66.2066 184.519,79.2066 188,92.5C 190.257,96.6829 192.257,101.016 194,105.5C 194.895,118.253 194.228,130.919 192,143.5C 188.929,154.238 182.096,161.404 171.5,165C 163.366,166.515 155.366,168.515 147.5,171C 144.167,171.667 140.833,171.667 137.5,171C 135,169.833 133.167,168 132,165.5C 130.594,161.765 130.094,158.098 130.5,154.5C 117.725,158.022 105.058,157.855 92.5,154C 86.1754,153.5 79.8421,153.334 73.5,153.5C 73.9129,164.596 68.5796,171.096 57.5,173C 48.5365,174.676 40.5365,172.676 33.5,167C 28.7886,162.62 23.7886,158.62 18.5,155C 13.1196,151.062 9.61959,145.896 8,139.5C 6.36786,128.097 6.53453,116.763 8.5,105.5C 8.16667,104.5 7.83333,103.5 7.5,102.5C 4.58528,101.296 2.41861,99.2956 1,96.5C 0.948857,89.4479 0.948857,82.4479 1,75.5C 2.41957,73.578 4.25291,72.2446 6.5,71.5C 8.197,66.4696 11.5303,63.1363 16.5,61.5C 22.9668,62.4284 25.4668,66.095 24,72.5C 23.1667,74.1667 22.3333,75.8333 21.5,77.5C 23.9524,79.3929 26.6191,80.7263 29.5,81.5C 30.3782,73.096 34.7115,70.2626 42.5,73C 46.3354,78.2332 46.3354,83.5665 42.5,89C 49.0786,90.6549 50.9119,94.4882 48,100.5C 46.2949,101.763 44.6282,102.097 43,101.5C 39.8971,109.152 34.3971,112.819 26.5,112.5C 25.3682,119.783 25.2015,127.117 26,134.5C 26.3459,136.848 27.5125,138.681 29.5,140C 36.26,144.258 42.5933,149.091 48.5,154.5C 48.8333,154.333 49.1667,154.167 49.5,154C 45.9587,148.402 45.6254,142.568 48.5,136.5C 57.9334,132.275 67.6001,131.775 77.5,135C 88.0089,134.583 98.1755,136.083 108,139.5C 113.703,138.07 119.536,137.237 125.5,137C 134.475,126.232 145.475,123.565 158.5,129C 162.761,134.748 164.594,141.248 164,148.5C 166.835,147.084 169.502,145.417 172,143.5C 175.429,132.773 176.763,121.773 176,110.5C 174.274,106.047 172.274,101.714 170,97.5C 166.863,84.8908 162.863,72.5575 158,60.5C 155.107,56.4764 151.274,54.1431 146.5,53.5C 139.355,56.7134 131.855,59.0467 124,60.5C 109.771,60.051 95.6044,58.8843 81.5,57C 77.5482,55.7708 75.2149,53.1042 74.5,49C 67.5876,47.1841 61.2542,48.5175 55.5,53C 62.9642,60.5988 61.4642,65.7655 51,68.5C 47.771,67.9011 44.6043,67.0678 41.5,66C 38.3754,62.8871 35.3754,59.7204 32.5,56.5C 28.2303,54.4495 24.397,51.7828 21,48.5C 17.6675,41.8327 19.6675,37.8327 27,36.5C 30.9571,37.0576 34.7904,38.0576 38.5,39.5C 46.765,35.8629 55.0984,32.5296 63.5,29.5 Z M 12.5,87.5 C 19.4224,89.9606 25.7558,93.4606 31.5,98C 30.8742,98.7504 30.3742,99.5838 30,100.5C 23.763,98.5485 18.0964,95.5485 13,91.5C 12.51,90.2068 12.3433,88.8734 12.5,87.5 Z"/></g>
<g><path d="M 75.5,66.5 C 89.6685,67.8584 94.5018,75.1918 90,88.5C 82.2842,95.8376 74.1176,96.3376 65.5,90C 62.3353,87.1727 61.1687,83.6727 62,79.5C 63.8455,72.1497 68.3455,67.8164 75.5,66.5 Z"/></g>
<g><path d="M 132.5,67.5 C 135.978,67.1842 139.312,67.6842 142.5,69C 145.996,73.1698 148.662,77.8365 150.5,83C 150.332,86.8437 148.665,89.8437 145.5,92C 136.98,95.0832 129.48,93.5832 123,87.5C 119.999,77.8376 123.165,71.171 132.5,67.5 Z"/></g>
<g><path d="M 84.5,96.5 C 92.3211,97.3262 95.6545,101.66 94.5,109.5C 97.8153,109.028 100.149,107.195 101.5,104C 107.05,100.427 111.884,101.26 116,106.5C 116.781,117.085 111.948,123.918 101.5,127C 85.998,130.578 77.6647,124.412 76.5,108.5C 76.2298,102.335 78.8964,98.3351 84.5,96.5 Z"/></g>
</svg>